<svg xmlns="http://www.w3.org/2000/svg" viewBox="0 0 800 600" preserveAspectRatio="xMidYMid slice" role="presentation">
  <defs>
    <linearGradient id="ciel" x1="0" y1="0" x2="0" y2="1">
      <stop offset="0" stop-color="#cfe3f7"/>
      <stop offset="0.55" stop-color="#eaf3fc"/>
      <stop offset="1" stop-color="#f6fafe"/>
    </linearGradient>
    <linearGradient id="mer" x1="0" y1="0" x2="0" y2="1">
      <stop offset="0" stop-color="#8fb6d9"/>
      <stop offset="1" stop-color="#5f8db5"/>
    </linearGradient>
  </defs>
  <rect width="800" height="600" fill="url(#ciel)"/>
  <!-- soleil doux -->
  <circle cx="620" cy="120" r="70" fill="#f7e6bb" opacity=".55"/>
  <!-- colline / ville au loin -->
  <path d="M0 330c90-40 150-20 210-52 55-30 95-52 150-40 60 13 90 48 150 52 60 4 180-24 290-40v90H0z" fill="#dbe6f2"/>
  <path d="M330 262c8-16 16-26 22-40 6 14 14 24 22 40z" fill="#cbd9ea"/>
  <!-- mer -->
  <rect y="360" width="800" height="240" fill="url(#mer)"/>
  <g stroke="#ffffff" stroke-opacity=".28" stroke-width="3" stroke-linecap="round">
    <path d="M60 420h90M220 448h120M470 424h110M120 500h150M420 512h180M620 468h120"/>
  </g>
  <!-- ferry -->
  <g>
    <rect x="250" y="252" width="300" height="86" rx="8" fill="#ffffff"/>
    <rect x="276" y="268" width="248" height="14" rx="4" fill="#dce6f1"/>
    <rect x="276" y="296" width="248" height="14" rx="4" fill="#dce6f1"/>
    <path d="M232 338h348l-26 52H262z" fill="#123157"/>
    <rect x="300" y="212" width="130" height="42" rx="6" fill="#ffffff"/>
    <rect x="316" y="224" width="98" height="12" rx="3" fill="#dce6f1"/>
    <rect x="452" y="206" width="26" height="48" rx="5" fill="#c9a227"/>
  </g>
  <!-- reflet -->
  <path d="M262 396h280l-18 26H280z" fill="#ffffff" opacity=".16"/>
  <!-- mouettes -->
  <g stroke="#5c6f86" stroke-width="2.5" fill="none" stroke-linecap="round" opacity=".55">
    <path d="M120 150c8-8 14-8 20 0 6-8 12-8 20 0"/>
    <path d="M190 108c6-6 11-6 15 0 4-6 9-6 15 0"/>
    <path d="M96 214c6-6 11-6 15 0 4-6 9-6 15 0"/>
  </g>
</svg>
